<svg width="1200" height="800" viewBox="0 0 1200 800" fill="none" xmlns="http://www.w3.org/2000/svg">
  <!-- Background -->
  <rect width="1200" height="800" fill="#F9FAFB"/>
  
  <!-- Title -->
  <text x="600" y="60" font-family="Arial, sans-serif" font-size="32" font-weight="bold" fill="#111827" text-anchor="middle">
    ShopHub Logo System
  </text>
  
  <text x="600" y="90" font-family="Arial, sans-serif" font-size="16" fill="#6B7280" text-anchor="middle">
    Modern E-Commerce Platform Branding
  </text>
  
  <!-- Divider -->
  <line x1="100" y1="110" x2="1100" y2="110" stroke="#E5E7EB" stroke-width="2"/>
  
  <!-- Primary Logo - Light Theme -->
  <text x="150" y="160" font-family="Arial, sans-serif" font-size="18" font-weight="bold" fill="#111827">
    Primary Logo - Light Theme
  </text>
  <rect x="150" y="180" width="400" height="200" fill="white" stroke="#E5E7EB" stroke-width="2" rx="8"/>
  
  <defs>
    <linearGradient id="gradLight1" x1="0%" y1="0%" x2="100%" y2="100%">
      <stop offset="0%" stop-color="#7C3AED"/>
      <stop offset="50%" stop-color="#DB2777"/>
      <stop offset="100%" stop-color="#2563EB"/>
    </linearGradient>
    <filter id="glowLight1">
      <feGaussianBlur stdDeviation="2" result="coloredBlur"/>
      <feMerge>
        <feMergeNode in="coloredBlur"/>
        <feMergeNode in="SourceGraphic"/>
      </feMerge>
    </filter>
  </defs>
  
  <!-- Logo -->
  <g transform="translate(220, 230)">
    <path d="M25 35 L25 85 C25 90 28 93 33 93 L67 93 C72 93 75 90 75 85 L75 35" 
          stroke="url(#gradLight1)" stroke-width="6" stroke-linecap="round" stroke-linejoin="round" fill="none"/>
    <path d="M35 35 C35 25 40 15 50 15 C60 15 65 25 65 35" 
          stroke="url(#gradLight1)" stroke-width="6" stroke-linecap="round" fill="none"/>
    <circle cx="50" cy="55" r="4" fill="#7C3AED" filter="url(#glowLight1)"/>
    <circle cx="38" cy="65" r="3" fill="#DB2777" filter="url(#glowLight1)"/>
    <circle cx="62" cy="65" r="3" fill="#2563EB" filter="url(#glowLight1)"/>
    <circle cx="50" cy="75" r="3" fill="#7C3AED" filter="url(#glowLight1)"/>
    <line x1="50" y1="55" x2="38" y2="65" stroke="#7C3AED" stroke-width="2" opacity="0.5"/>
    <line x1="50" y1="55" x2="62" y2="65" stroke="#7C3AED" stroke-width="2" opacity="0.5"/>
    <line x1="38" y1="65" x2="50" y2="75" stroke="#DB2777" stroke-width="2" opacity="0.5"/>
    <line x1="62" y1="65" x2="50" y2="75" stroke="#2563EB" stroke-width="2" opacity="0.5"/>
  </g>
  
  <!-- Text -->
  <text x="340" y="295" font-family="Arial, sans-serif" font-size="32" font-weight="bold" fill="url(#gradLight1)">
    ShopHub
  </text>
  
  <!-- Primary Logo - Dark Theme -->
  <text x="650" y="160" font-family="Arial, sans-serif" font-size="18" font-weight="bold" fill="#111827">
    Primary Logo - Dark Theme
  </text>
  <rect x="650" y="180" width="400" height="200" fill="#1F2937" stroke="#374151" stroke-width="2" rx="8"/>
  
  <defs>
    <linearGradient id="gradDark1" x1="0%" y1="0%" x2="100%" y2="100%">
      <stop offset="0%" stop-color="#8B5CF6"/>
      <stop offset="50%" stop-color="#EC4899"/>
      <stop offset="100%" stop-color="#3B82F6"/>
    </linearGradient>
    <filter id="glowDark1">
      <feGaussianBlur stdDeviation="2" result="coloredBlur"/>
      <feMerge>
        <feMergeNode in="coloredBlur"/>
        <feMergeNode in="SourceGraphic"/>
      </feMerge>
    </filter>
  </defs>
  
  <!-- Logo -->
  <g transform="translate(720, 230)">
    <path d="M25 35 L25 85 C25 90 28 93 33 93 L67 93 C72 93 75 90 75 85 L75 35" 
          stroke="url(#gradDark1)" stroke-width="6" stroke-linecap="round" stroke-linejoin="round" fill="none"/>
    <path d="M35 35 C35 25 40 15 50 15 C60 15 65 25 65 35" 
          stroke="url(#gradDark1)" stroke-width="6" stroke-linecap="round" fill="none"/>
    <circle cx="50" cy="55" r="4" fill="#8B5CF6" filter="url(#glowDark1)"/>
    <circle cx="38" cy="65" r="3" fill="#EC4899" filter="url(#glowDark1)"/>
    <circle cx="62" cy="65" r="3" fill="#3B82F6" filter="url(#glowDark1)"/>
    <circle cx="50" cy="75" r="3" fill="#8B5CF6" filter="url(#glowDark1)"/>
    <line x1="50" y1="55" x2="38" y2="65" stroke="#8B5CF6" stroke-width="2" opacity="0.5"/>
    <line x1="50" y1="55" x2="62" y2="65" stroke="#8B5CF6" stroke-width="2" opacity="0.5"/>
    <line x1="38" y1="65" x2="50" y2="75" stroke="#EC4899" stroke-width="2" opacity="0.5"/>
    <line x1="62" y1="65" x2="50" y2="75" stroke="#3B82F6" stroke-width="2" opacity="0.5"/>
  </g>
  
  <!-- Text -->
  <text x="840" y="295" font-family="Arial, sans-serif" font-size="32" font-weight="bold" fill="url(#gradDark1)">
    ShopHub
  </text>
  
  <!-- Icon Only Variations -->
  <text x="150" y="440" font-family="Arial, sans-serif" font-size="18" font-weight="bold" fill="#111827">
    Icon Variations
  </text>
  
  <!-- 32px -->
  <rect x="150" y="460" width="120" height="120" fill="white" stroke="#E5E7EB" stroke-width="2" rx="8"/>
  <g transform="translate(178, 488) scale(0.32)">
    <path d="M25 35 L25 85 C25 90 28 93 33 93 L67 93 C72 93 75 90 75 85 L75 35" 
          stroke="url(#gradLight1)" stroke-width="6" stroke-linecap="round" stroke-linejoin="round" fill="none"/>
    <path d="M35 35 C35 25 40 15 50 15 C60 15 65 25 65 35" 
          stroke="url(#gradLight1)" stroke-width="6" stroke-linecap="round" fill="none"/>
    <circle cx="50" cy="55" r="4" fill="#7C3AED"/>
    <circle cx="38" cy="65" r="3" fill="#DB2777"/>
    <circle cx="62" cy="65" r="3" fill="#2563EB"/>
    <circle cx="50" cy="75" r="3" fill="#7C3AED"/>
    <line x1="50" y1="55" x2="38" y2="65" stroke="#7C3AED" stroke-width="2" opacity="0.5"/>
    <line x1="50" y1="55" x2="62" y2="65" stroke="#7C3AED" stroke-width="2" opacity="0.5"/>
    <line x1="38" y1="65" x2="50" y2="75" stroke="#DB2777" stroke-width="2" opacity="0.5"/>
    <line x1="62" y1="65" x2="50" y2="75" stroke="#2563EB" stroke-width="2" opacity="0.5"/>
  </g>
  <text x="210" y="600" font-family="Arial, sans-serif" font-size="12" fill="#6B7280" text-anchor="middle">32px</text>
  
  <!-- 48px -->
  <rect x="290" y="460" width="120" height="120" fill="white" stroke="#E5E7EB" stroke-width="2" rx="8"/>
  <g transform="translate(326, 496) scale(0.48)">
    <path d="M25 35 L25 85 C25 90 28 93 33 93 L67 93 C72 93 75 90 75 85 L75 35" 
          stroke="url(#gradLight1)" stroke-width="6" stroke-linecap="round" stroke-linejoin="round" fill="none"/>
    <path d="M35 35 C35 25 40 15 50 15 C60 15 65 25 65 35" 
          stroke="url(#gradLight1)" stroke-width="6" stroke-linecap="round" fill="none"/>
    <circle cx="50" cy="55" r="4" fill="#7C3AED"/>
    <circle cx="38" cy="65" r="3" fill="#DB2777"/>
    <circle cx="62" cy="65" r="3" fill="#2563EB"/>
    <circle cx="50" cy="75" r="3" fill="#7C3AED"/>
    <line x1="50" y1="55" x2="38" y2="65" stroke="#7C3AED" stroke-width="2" opacity="0.5"/>
    <line x1="50" y1="55" x2="62" y2="65" stroke="#7C3AED" stroke-width="2" opacity="0.5"/>
    <line x1="38" y1="65" x2="50" y2="75" stroke="#DB2777" stroke-width="2" opacity="0.5"/>
    <line x1="62" y1="65" x2="50" y2="75" stroke="#2563EB" stroke-width="2" opacity="0.5"/>
  </g>
  <text x="350" y="600" font-family="Arial, sans-serif" font-size="12" fill="#6B7280" text-anchor="middle">48px</text>
  
  <!-- 64px -->
  <rect x="430" y="460" width="120" height="120" fill="white" stroke="#E5E7EB" stroke-width="2" rx="8"/>
  <g transform="translate(462, 492) scale(0.64)">
    <path d="M25 35 L25 85 C25 90 28 93 33 93 L67 93 C72 93 75 90 75 85 L75 35" 
          stroke="url(#gradLight1)" stroke-width="6" stroke-linecap="round" stroke-linejoin="round" fill="none"/>
    <path d="M35 35 C35 25 40 15 50 15 C60 15 65 25 65 35" 
          stroke="url(#gradLight1)" stroke-width="6" stroke-linecap="round" fill="none"/>
    <circle cx="50" cy="55" r="4" fill="#7C3AED"/>
    <circle cx="38" cy="65" r="3" fill="#DB2777"/>
    <circle cx="62" cy="65" r="3" fill="#2563EB"/>
    <circle cx="50" cy="75" r="3" fill="#7C3AED"/>
    <line x1="50" y1="55" x2="38" y2="65" stroke="#7C3AED" stroke-width="2" opacity="0.5"/>
    <line x1="50" y1="55" x2="62" y2="65" stroke="#7C3AED" stroke-width="2" opacity="0.5"/>
    <line x1="38" y1="65" x2="50" y2="75" stroke="#DB2777" stroke-width="2" opacity="0.5"/>
    <line x1="62" y1="65" x2="50" y2="75" stroke="#2563EB" stroke-width="2" opacity="0.5"/>
  </g>
  <text x="490" y="600" font-family="Arial, sans-serif" font-size="12" fill="#6B7280" text-anchor="middle">64px</text>
  
  <!-- Color Palette -->
  <text x="650" y="440" font-family="Arial, sans-serif" font-size="18" font-weight="bold" fill="#111827">
    Color Palette
  </text>
  
  <!-- Light Mode Colors -->
  <text x="650" y="475" font-family="Arial, sans-serif" font-size="14" font-weight="600" fill="#374151">
    Light Mode
  </text>
  <rect x="650" y="490" width="80" height="60" fill="#7C3AED" rx="4"/>
  <text x="690" y="565" font-family="Arial, sans-serif" font-size="11" fill="#6B7280" text-anchor="middle">#7C3AED</text>
  
  <rect x="745" y="490" width="80" height="60" fill="#DB2777" rx="4"/>
  <text x="785" y="565" font-family="Arial, sans-serif" font-size="11" fill="#6B7280" text-anchor="middle">#DB2777</text>
  
  <rect x="840" y="490" width="80" height="60" fill="#2563EB" rx="4"/>
  <text x="880" y="565" font-family="Arial, sans-serif" font-size="11" fill="#6B7280" text-anchor="middle">#2563EB</text>
  
  <!-- Dark Mode Colors -->
  <text x="650" y="605" font-family="Arial, sans-serif" font-size="14" font-weight="600" fill="#374151">
    Dark Mode
  </text>
  <rect x="650" y="620" width="80" height="60" fill="#8B5CF6" rx="4"/>
  <text x="690" y="695" font-family="Arial, sans-serif" font-size="11" fill="#6B7280" text-anchor="middle">#8B5CF6</text>
  
  <rect x="745" y="620" width="80" height="60" fill="#EC4899" rx="4"/>
  <text x="785" y="695" font-family="Arial, sans-serif" font-size="11" fill="#6B7280" text-anchor="middle">#EC4899</text>
  
  <rect x="840" y="620" width="80" height="60" fill="#3B82F6" rx="4"/>
  <text x="880" y="695" font-family="Arial, sans-serif" font-size="11" fill="#6B7280" text-anchor="middle">#3B82F6</text>
  
  <!-- Footer -->
  <line x1="100" y1="730" x2="1100" y2="730" stroke="#E5E7EB" stroke-width="2"/>
  <text x="600" y="765" font-family="Arial, sans-serif" font-size="14" fill="#6B7280" text-anchor="middle">
    © 2025 ShopHub - Modern E-Commerce Platform
  </text>
</svg>
